<?xml version="1.0" encoding="iso-8859-1"?>
<!-- Uploaded to: SVG Repo, www.svgrepo.com, Generator: SVG Repo Mixer Tools -->
<svg height="800px" width="800px" version="1.1" id="Layer_1" xmlns="http://www.w3.org/2000/svg" xmlns:xlink="http://www.w3.org/1999/xlink" 
	 viewBox="0 0 512 512" xml:space="preserve">
<g transform="translate(1 1)">
	<g>
		<polygon style="fill:#FFDD09;" points="7.707,502.467 50.374,502.467 50.374,297.667 7.707,297.667 		"/>
		<path style="fill:#FFDD09;" d="M496.667,342.04c6.827-5.12,7.68-15.36,2.56-22.187c-11.093-14.507-19.627-18.773-56.32,0.853
			l-74.24,45.227c-23.04,11.947-81.92,8.533-107.52,8.533c0,0,60.587,4.267,36.693-31.573c-11.947-17.92-32.427-28.16-54.613-28.16
			h-33.28c-19.627,0-38.4-5.973-53.76-17.067c-35.84-28.16-105.813,25.6-105.813,25.6v153.6H169.84
			c17.067,0,34.133-1.707,51.2-4.267l110.933-17.067c3.413,0,7.68-0.853,11.093-0.853l0,0c9.387-0.853,17.067-5.973,23.893-11.947
			L496.667,342.04z"/>
	</g>
	<polygon style="fill:#FD9808;" points="468.507,220.867 41.84,220.867 72.56,263.533 437.787,263.533 	"/>
	<polygon style="fill:#FFDD09;" points="442.907,220.867 41.84,220.867 72.56,263.533 412.187,263.533 	"/>
	<polygon style="fill:#FFFFFF;" points="70.854,220.867 101.574,263.533 75.974,263.533 45.254,220.867 	"/>
	<path style="fill:#FD9808;" d="M442.907,220.867c0-103.253-83.627-187.733-187.733-187.733S67.44,117.613,67.44,220.867H442.907z"
		/>
	<path style="fill:#FFDD09;" d="M417.307,220.867c0-103.253-78.507-187.733-174.933-187.733S67.44,117.613,67.44,220.867H417.307z"
		/>
	<path style="fill:#FFFFFF;" d="M255.174,33.133c2.56,0,4.267,0,6.827,0C168.134,36.547,93.04,119.32,93.04,220.867h-25.6
		C67.44,117.613,151.92,33.133,255.174,33.133"/>
	<path d="M169.84,485.4h-128V319l3.413-2.56c3.413-2.56,75.093-57.173,116.053-26.453c13.653,10.24,30.72,15.36,48.64,15.36h33.28
		c24.747,0,47.787,11.947,61.44,31.573c7.68,11.093,9.387,20.48,5.12,28.16c21.333,0,44.373-1.707,54.613-7.68l73.387-45.227
		c37.547-19.627,52.907-19.627,68.267,0.853c7.68,10.24,5.973,25.6-4.267,34.133l0,0l-128.853,102.4
		c-8.533,7.68-17.92,12.8-28.16,14.507c-3.413,0.853-7.68,1.707-11.947,1.707L221.894,482.84
		C204.827,483.693,186.907,485.4,169.84,485.4z M58.907,468.333H169.84c16.213,0,33.28-0.853,49.493-3.413l112.64-17.067
		c3.413,0,5.973,0,9.387-0.853h0.853c6.827-0.853,12.8-4.267,18.773-9.387l0.853-0.853l129.707-100.693
		c3.413-2.56,3.413-7.68,1.707-10.24c-6.827-10.24-10.24-14.507-46.08,3.413l-73.387,45.227
		c-19.627,10.24-57.173,11.093-97.28,10.24c-1.707,0-3.413,0-4.267,0c-5.12,0-8.533,0-11.093,0L262,367.64c2.56,0,5.973,0,9.387,0
		c11.093-0.853,21.333-2.56,23.893-6.827c0.853-1.707,0-6.827-3.413-11.947c-11.093-17.067-29.013-25.6-48.64-25.6h-33.28
		c-21.333,0-42.667-6.827-58.88-18.773c-23.893-18.773-71.68,8.533-92.16,23.04L58.907,468.333L58.907,468.333z M496.667,342.04
		L496.667,342.04L496.667,342.04z"/>
	<path d="M58.907,511H-0.826V289.133h59.733V511z M16.24,493.933h25.6V306.2h-25.6V493.933z"/>
	<path d="M159.6,410.307c-5.12,0-8.533-3.413-8.533-8.533c0-21.333,16.213-34.133,42.667-34.133h82.773
		c5.12,0,8.533,3.413,8.533,8.533c0,5.12-3.413,8.533-8.533,8.533h-82.773c-25.6,0-25.6,12.8-25.6,17.067
		C168.134,406.893,164.72,410.307,159.6,410.307z"/>
	<path d="M437.787,272.067H72.56c-2.56,0-5.12-1.707-6.827-3.413l-30.72-42.667c-1.707-2.56-1.707-5.973-0.853-8.533
		c0.853-2.56,4.267-5.12,7.68-5.12h426.667c3.413,0,5.973,1.707,7.68,4.267c1.707,2.56,0.853,5.973-0.853,8.533l-30.72,42.667
		C443.76,270.36,441.2,272.067,437.787,272.067z M76.827,255H433.52l17.92-25.6H58.907L76.827,255z"/>
	<path d="M255.174,41.667c-5.12,0-8.533-3.413-8.533-8.533v-25.6c0-5.12,3.413-8.533,8.533-8.533c5.12,0,8.533,3.413,8.533,8.533
		v25.6C263.707,38.253,260.294,41.667,255.174,41.667z"/>
	<path d="M280.774,16.067h-51.2c-5.12,0-8.533-3.413-8.533-8.533S224.454-1,229.574-1h51.2c5.12,0,8.533,3.413,8.533,8.533
		S285.894,16.067,280.774,16.067z"/>
	<path d="M442.907,229.4H67.44c-5.12,0-8.533-3.413-8.533-8.533C58.907,112.493,146.8,24.6,255.174,24.6
		S451.44,112.493,451.44,220.867C451.44,225.987,448.027,229.4,442.907,229.4z M75.974,212.333h358.4
		c-4.267-94.72-82.773-170.667-179.2-170.667C159.6,41.667,81.094,117.613,75.974,212.333z"/>
	<path d="M122.054,152.6c-1.707,0-2.56,0-4.267-0.853c-4.267-2.56-5.12-7.68-3.413-11.947C144.24,89.453,198,58.733,255.174,58.733
		c5.12,0,8.533,3.413,8.533,8.533s-3.413,8.533-8.533,8.533c-51.2,0-99.84,28.16-125.44,72.533
		C128.027,150.893,125.467,152.6,122.054,152.6z"/>
</g>
</svg>